<svg xmlns="http://www.w3.org/2000/svg" x="0px" y="0px" viewBox="0 0 46 46"><style>.st0{fill:#0037ff}</style><path class="st0" d="M17.1 5.2c-2.2 2.2-3.6 4.8-4.3 7.5-2.8.7-5.4 2.1-7.5 4.3C2.1 20.2.4 24.4.4 28.7l11.8-11.8c0 1 .1 2.1.3 3.1L.6 31.8c.3 1.7.9 3.4 1.7 5l7.6-7.6c-.1-2 .6-3.9 2.1-5.4.4-.4.8-.7 1.2-1 .8 2.2 2.1 4.3 3.9 6 1.8 1.8 3.8 3.1 6 3.9-.3.4-.6.8-1 1.2-1.5 1.5-3.5 2.2-5.4 2.1l-7.6 7.6c1.6.9 3.3 1.4 5 1.7L26 33.5c1 .2 2.1.3 3.1.3L17.3 45.6c4.2 0 8.4-1.7 11.7-4.9 2.2-2.2 3.6-4.8 4.3-7.5 2.7-.7 5.3-2.2 7.5-4.3 6.5-6.5 6.5-17.1 0-23.7s-17.2-6.6-23.7 0zM34 22.1c-2.8 2.8-7.3 2.8-10.1 0s-2.8-7.3 0-10.1 7.3-2.8 10.1 0c2.8 2.7 2.8 7.3 0 10.1z"/><path class="st0" d="M14 35.3l-6.9 6.9c-.6-.5-1.2-1-1.8-1.6-.6-.6-1.1-1.2-1.6-1.8l6.9-6.9c.3.7.8 1.4 1.4 2 .6.6 1.3 1 2 1.4z"/></svg>
